<svg width="256" height="256" viewBox="0 0 256 256" fill="none" xmlns="http://www.w3.org/2000/svg">
<rect width="256" height="256" fill="white"/>
<rect width="256" height="256" fill="#2C2E31"/>
<rect x="46.2222" y="56.8889" width="170.667" height="149.333" fill="white"/>
<path fill-rule="evenodd" clip-rule="evenodd" d="M9.64853 122.426C11.9844 104.744 14.85 87.5865 18.2452 70.9531C21.908 53.0089 38.6787 39.1111 56.6694 39.1111H223.142C240.203 39.1111 253.015 51.6483 253.212 68.5358C253.412 85.6939 252.056 105.291 249.145 127.327C246.335 148.603 242.571 168.252 237.855 186.275C232.741 205.818 214.165 220.444 194.459 220.444H37.9253C17.2278 220.444 2.22066 204.356 3.64962 183.7C5.18538 161.499 7.18501 141.075 9.64853 122.426ZM167.59 77.2414C163.779 73.4133 157.605 73.3742 153.765 77.1742C134.608 96.1339 82.1345 148.062 79.0177 151.096C73.163 157.926 66.4358 180.257 66.4358 180.257C66.1184 182.293 65.9094 184.919 66.7521 186.817C67.2375 187.979 68.1643 188.957 69.4193 189.477C71.6836 190.415 76.2429 191.706 83.4657 192.958C95.2102 194.994 110.359 196.209 129.287 196.209C148.215 196.209 163.364 194.994 175.108 192.958C182.331 191.706 186.891 190.415 189.155 189.477C191.675 188.432 192.872 185.542 191.828 183.022C190.783 180.501 187.893 179.305 185.373 180.349C185.074 180.473 184.25 180.758 182.855 181.153C180.392 181.85 177.263 182.557 173.421 183.223C162.254 185.159 147.667 186.329 129.287 186.329C114.363 186.329 101.939 185.558 91.8168 184.231C96.0955 182.385 100.511 179.774 104.181 176.091C113.219 167.022 160.538 119.945 178.51 102.068C182.349 98.2492 182.344 92.06 178.523 88.2223L167.59 77.2414ZM81.1772 168.671C78.9808 172.345 82.5553 175.605 86.2442 173.433C91.1177 170.563 96.6528 166.943 99.988 163.594C105.82 157.739 139.926 123.903 151.023 112.897C152.955 110.981 152.937 107.877 151.006 105.959L149.566 104.529C147.658 102.634 144.603 102.609 142.691 104.499C132.304 114.769 101.317 145.426 91.6001 155.263C86.9105 160.01 83.5373 164.722 81.1772 168.671ZM153.816 100.419C151.886 98.5023 151.886 95.3812 153.816 93.4646L159.443 87.875C161.355 85.9766 164.44 85.9766 166.351 87.875L167.784 89.2989C169.714 91.2154 169.714 94.3365 167.784 96.2531L162.157 101.843C160.246 103.741 157.161 103.741 155.249 101.843L153.816 100.419Z" fill="#2C2E31"/>
</svg>
